<?xml version="1.0" encoding="iso-8859-1"?>
<!-- Generator: Adobe Illustrator 23.0.0, SVG Export Plug-In . SVG Version: 6.00 Build 0)  -->
<svg version="1.1" id="Layer_1" xmlns="http://www.w3.org/2000/svg" xmlns:xlink="http://www.w3.org/1999/xlink" x="0px" y="0px"
	 viewBox="-49 141 512 512" style="enable-background:new -49 141 512 512;" xml:space="preserve">
<g>
	<path style="fill:#FFFFFF;" d="M432.333,373.725c-4.04-5.18-11.511-6.101-16.693-2.064c-5.179,4.04-6.103,11.513-2.064,16.693
		c3.97,5.092,3.97,12.201,0,17.293c-29.092,37.3-66.734,65.328-109.111,82.275c22.273-23.849,35.911-55.827,35.911-90.921
		c0-34.956-13.524-66.82-35.607-90.617c24.487,9.846,47.506,23.378,68.113,40.275c2.557,2.096,5.107,4.27,7.584,6.462
		c4.918,4.354,12.434,3.897,16.788-1.02c4.354-4.917,3.897-12.435-1.02-16.788c-2.7-2.392-5.483-4.763-8.271-7.047
		c-50.837-41.681-115.106-64.636-180.963-64.636c-88.631,0-170.762,40.129-225.332,110.099c-10.688,13.704-10.688,32.847,0,46.552
		c54.57,69.969,136.701,110.098,225.332,110.098c88.63,0,170.761-40.129,225.334-110.098
		C443.021,406.57,443.021,387.43,432.333,373.725z M316.59,397c0,60.382-49.081,109.508-109.446,109.586
		c-0.048,0-0.095,0.001-0.144,0.001s-0.095-0.001-0.144-0.001C146.492,506.508,97.411,457.382,97.411,397
		s49.081-109.508,109.446-109.586c0.048,0,0.095-0.001,0.144-0.001c0.037,0,0.074,0.001,0.111,0.001
		C267.491,287.474,316.59,336.606,316.59,397z M0.424,405.646c-3.97-5.092-3.97-12.201,0-17.293
		c29.086-37.293,66.72-65.318,109.089-82.266C87.263,329.925,73.624,361.891,73.624,397c0,35.096,13.639,67.075,35.889,90.912
		C67.144,470.964,29.51,442.94,0.424,405.646z"/>
	<path style="fill:#FFFFFF;" d="M156.534,397c0,27.83,22.637,50.467,50.467,50.467S257.468,424.83,257.468,397
		s-22.637-50.467-50.467-50.467S156.534,369.17,156.534,397z M233.681,397c0,14.708-11.973,26.681-26.681,26.681
		c-14.708,0-26.681-11.973-26.681-26.681s11.973-26.681,26.681-26.681C221.709,370.319,233.681,382.292,233.681,397z"/>
	<path style="fill:#FFFFFF;" d="M207.001,216.167c6.569,0,11.893-5.324,11.893-11.893v-44.6c0-6.569-5.324-11.893-11.893-11.893
		c-6.569,0-11.893,5.324-11.893,11.893v44.6C195.107,210.843,200.432,216.167,207.001,216.167z"/>
	<path style="fill:#FFFFFF;" d="M207.001,577.833c-6.569,0-11.893,5.324-11.893,11.893v44.6c0,6.569,5.324,11.893,11.893,11.893
		c6.569,0,11.893-5.324,11.893-11.893v-44.6C218.894,583.157,213.568,577.833,207.001,577.833z"/>
	<path style="fill:#FFFFFF;" d="M352.623,263.271c3.043,0,6.087-1.162,8.41-3.483l22.193-22.191c4.645-4.645,4.645-12.175,0-16.821
		c-4.645-4.644-12.173-4.644-16.821,0l-22.192,22.191c-4.645,4.645-4.645,12.175,0,16.821
		C346.536,262.109,349.578,263.271,352.623,263.271z"/>
	<path style="fill:#FFFFFF;" d="M52.968,534.212l-22.193,22.192c-4.645,4.645-4.645,12.175,0,16.821
		c2.323,2.322,5.367,3.483,8.41,3.483c3.043,0,6.087-1.162,8.41-3.483l22.193-22.192c4.645-4.645,4.645-12.175,0-16.821
		C65.145,529.57,57.615,529.569,52.968,534.212z"/>
	<path style="fill:#FFFFFF;" d="M52.968,259.788c2.322,2.322,5.366,3.483,8.41,3.483c3.043,0,6.088-1.162,8.41-3.483
		c4.645-4.646,4.644-12.176,0-16.821l-22.193-22.191c-4.645-4.644-12.175-4.644-16.82,0c-4.645,4.646-4.644,12.176,0,16.821
		L52.968,259.788z"/>
	<path style="fill:#FFFFFF;" d="M361.033,534.212c-4.646-4.644-12.175-4.644-16.821,0c-4.645,4.646-4.645,12.176,0,16.821
		l22.193,22.192c2.323,2.322,5.367,3.483,8.41,3.483s6.087-1.162,8.41-3.483c4.645-4.646,4.645-12.176,0-16.821L361.033,534.212z"/>
</g>
</svg>
